<svg width="45" height="55" viewBox="0 0 45 55" fill="none" xmlns="http://www.w3.org/2000/svg">
<path d="M7.5 41.25H37.5C38.5313 41.25 39.375 40.2188 39.375 38.9583C39.375 37.6979 38.5313 36.6667 37.5 36.6667H7.5C6.46875 36.6667 5.625 37.6979 5.625 38.9583C5.625 40.2188 6.46875 41.25 7.5 41.25ZM7.5 29.7917H37.5C38.5313 29.7917 39.375 28.7604 39.375 27.5C39.375 26.2396 38.5313 25.2083 37.5 25.2083H7.5C6.46875 25.2083 5.625 26.2396 5.625 27.5C5.625 28.7604 6.46875 29.7917 7.5 29.7917ZM5.625 16.0417C5.625 17.3021 6.46875 18.3333 7.5 18.3333H37.5C38.5313 18.3333 39.375 17.3021 39.375 16.0417C39.375 14.7813 38.5313 13.75 37.5 13.75H7.5C6.46875 13.75 5.625 14.7813 5.625 16.0417Z" fill="#00B894"/>
</svg>
